<svg version="1.1" xmlns="http://www.w3.org/2000/svg" width="405px" height="451px" transform="rotate(0) scale(1, 1)">
<path d="M0 0 C0.75478638 -0.00100708 1.50957275 -0.00201416 2.28723145 -0.00305176 C13.27233548 0.00686102 23.69806727 0.43648394 34.375 3.25 C35.5815625 3.55164063 36.788125 3.85328125 38.03125 4.1640625 C76.45092797 14.43715031 109.49782163 38.87539466 130.00830078 73.05664062 C142.02411747 93.96741912 149.82197102 118.01423805 149.375 142.25 C148.75455811 141.9826001 148.13411621 141.7152002 147.49487305 141.43969727 C144.68462449 140.22936743 141.87357326 139.0209131 139.0625 137.8125 C138.08603516 137.39162109 137.10957031 136.97074219 136.10351562 136.53710938 C134.69682617 135.93286133 134.69682617 135.93286133 133.26171875 135.31640625 C132.39764404 134.94459229 131.53356934 134.57277832 130.64331055 134.18969727 C128.91444521 133.47347698 127.15031748 132.84177249 125.375 132.25 C124.6706543 130.44677734 124.6706543 130.44677734 124.19921875 128.0859375 C124.01447998 127.21855957 123.82974121 126.35118164 123.6394043 125.45751953 C123.44902588 124.52278809 123.25864746 123.58805664 123.0625 122.625 C115.93193194 90.48179976 97.16272887 62.24302343 69.53222656 43.99145508 C41.4134674 26.13722564 7.36940583 19.22383299 -25.5 25.875 C-58.54428436 33.30350805 -87.93302364 53.397271 -106.13671875 82.06640625 C-124.12279493 111.58328196 -129.73948814 145.90610641 -121.84375 179.5859375 C-113.76876687 211.66156493 -93.00898056 239.79174156 -64.78320312 257.00488281 C-60.92423255 259.23121199 -56.95546975 261.20374285 -52.9375 263.125 C-51.72574097 263.70954956 -51.72574097 263.70954956 -50.48950195 264.3059082 C-45.91529125 266.4326337 -41.87780488 267.61726541 -36.875 268.4375 C-34.09375 269.2265625 -34.09375 269.2265625 -31.625 271.25 C-27.84914443 278.5342547 -24.625 287.98983993 -24.625 296.25 C-33.76341124 296.00835932 -42.09560687 293.27712512 -50.625 290.25 C-51.66068115 289.88261719 -51.66068115 289.88261719 -52.71728516 289.5078125 C-68.44627821 283.78683823 -83.0451109 275.3291304 -95.625 264.25 C-96.46289062 263.52039063 -97.30078125 262.79078125 -98.1640625 262.0390625 C-100.68343956 259.80891906 -103.15977054 257.53972471 -105.625 255.25 C-106.27984375 254.66089844 -106.9346875 254.07179688 -107.609375 253.46484375 C-131.24924728 231.2414101 -147.28081486 195.85055167 -148.80200195 163.48388672 C-148.82815919 162.13258576 -148.84832299 160.78115883 -148.86328125 159.4296875 C-148.87797203 158.33086243 -148.87797203 158.33086243 -148.89295959 157.20983887 C-149.06294281 141.19693349 -149.0279327 125.78089276 -144.625 110.25 C-144.41069336 109.4760791 -144.19638672 108.7021582 -143.97558594 107.90478516 C-132.6800837 68.27187665 -105.41700267 36.41832521 -69.796875 16.4375 C-63.62273321 13.11252114 -57.23177182 10.59005214 -50.625 8.25 C-49.56410156 7.87230469 -48.50320312 7.49460937 -47.41015625 7.10546875 C-44.49487252 6.10369171 -41.57013125 5.159944 -38.625 4.25 C-37.23861328 3.816875 -37.23861328 3.816875 -35.82421875 3.375 C-24.10997501 -0.07134045 -12.12208305 0.01125788 0 0 Z " fill="#000000" transform="translate(178.625,78.75)"/>
<path d="M0 0 C0.65880157 0.00054382 1.31760315 0.00108765 1.99636841 0.00164795 C12.94884998 0.0431051 23.0324326 0.91979187 33.4375 4.375 C34.0867041 4.58930664 34.7359082 4.80361328 35.40478516 5.02441406 C63.49588867 14.64724533 85.61372886 34.71307639 98.68676758 61.28076172 C105.81624622 76.372306 108.83581607 91.25909217 108.8125 107.9375 C108.81195618 108.59630157 108.81141235 109.25510315 108.81085205 109.93386841 C108.7693949 120.88634998 107.89270813 130.9699326 104.4375 141.375 C104.22319336 142.0242041 104.00888672 142.6734082 103.78808594 143.34228516 C94.16525467 171.43338867 74.09942361 193.55122886 47.53173828 206.62426758 C32.440194 213.75374622 17.55340783 216.77331607 0.875 216.75 C0.21619843 216.74945618 -0.44260315 216.74891235 -1.12136841 216.74835205 C-12.07384998 216.7068949 -22.1574326 215.83020813 -32.5625 212.375 C-33.2117041 212.16069336 -33.8609082 211.94638672 -34.52978516 211.72558594 C-62.62088867 202.10275467 -84.73872886 182.03692361 -97.81176758 155.46923828 C-104.94124622 140.377694 -107.96081607 125.49090783 -107.9375 108.8125 C-107.93695618 108.15369843 -107.93641235 107.49489685 -107.93585205 106.81613159 C-107.8943949 95.86365002 -107.01770813 85.7800674 -103.5625 75.375 C-103.34819336 74.7257959 -103.13388672 74.0765918 -102.91308594 73.40771484 C-93.29025467 45.31661133 -73.22442361 23.19877114 -46.65673828 10.12573242 C-31.565194 2.99625378 -16.67840783 -0.02331607 0 0 Z M-56.5625 39.375 C-57.36945313 40.04015625 -58.17640625 40.7053125 -59.0078125 41.390625 C-77.50870948 57.11921632 -87.14603221 79.31313235 -89.30859375 103.21484375 C-91.00118 126.89472399 -82.05067833 150.21275335 -66.68945312 168.02392578 C-49.95008286 186.72809448 -27.42284675 196.49853359 -2.59814453 198.27294922 C21.07654837 199.45980717 44.1831773 189.7346287 61.625 174.125 C79.91744045 157.07642192 89.19700115 134.11968761 90.4375 109.375 C90.67580423 84.77670737 80.32812331 61.71707017 63.33984375 44.19140625 C31.70390597 12.83176487 -22.75417066 9.5216073 -56.5625 39.375 Z " fill="#000000" transform="translate(267.5625,217.625)"/>
<path d="M0 0 C0.76308472 -0.00511093 1.52616943 -0.01022186 2.31237793 -0.01548767 C4.83146029 -0.02937231 7.35026872 -0.02842779 9.86938477 -0.02612305 C11.62289023 -0.03001056 13.37639476 -0.03434535 15.12989807 -0.03910828 C18.80424045 -0.04656803 22.47848674 -0.04628096 26.15283203 -0.04101562 C30.85834756 -0.03522091 35.56346949 -0.05215313 40.26891994 -0.0753603 C43.89006342 -0.09010142 47.51111218 -0.09096883 51.13228035 -0.08785057 C52.86700279 -0.08836358 54.60173056 -0.09359751 56.33642387 -0.10366249 C58.76360432 -0.11601724 61.19001906 -0.10924144 63.6171875 -0.09765625 C64.33163528 -0.10529999 65.04608307 -0.11294373 65.78218079 -0.12081909 C71.1101668 -0.0646888 74.14537224 1.36501354 78.12329102 4.7746582 C81.33899823 8.63350686 80.63213958 13.84794773 80.68579102 18.5871582 C80.72929687 19.85076172 80.72929687 19.85076172 80.77368164 21.13989258 C80.83020245 26.7006703 80.11493779 29.88318247 76.37329102 34.2746582 C72.43187567 37.13218433 69.04059082 37.44520018 64.31079102 37.7121582 C60.65917896 37.95620158 58.6026659 38.1576302 55.31079102 39.8371582 C52.66943224 42.90348635 52.66943224 42.90348635 50.37329102 50.2746582 C38.49329102 50.2746582 26.61329102 50.2746582 14.37329102 50.2746582 C13.05329102 47.3046582 11.73329102 44.3346582 10.37329102 41.2746582 C6.57050896 37.58711197 2.06547839 37.92350732 -2.97045898 37.5715332 C-7.54485093 37.06027763 -10.4167335 35.3869476 -13.75561523 32.31762695 C-16.48708868 27.87541858 -16.21152948 23.95112708 -16.12670898 18.8371582 C-16.14217773 17.90838867 -16.15764648 16.97961914 -16.17358398 16.02270508 C-16.14108138 10.31443444 -15.60131021 6.69010428 -11.62670898 2.2746582 C-7.99715524 -0.20812437 -4.24011207 -0.01466146 0 0 Z " fill="#000000" transform="translate(146.626708984375,17.725341796875)"/>
<path d="M0 0 C0.7321875 -0.01289063 1.464375 -0.02578125 2.21875 -0.0390625 C5.77323802 0.99563435 7.20781243 2.7411023 9.5 5.625 C10.22624866 8.60445487 10.18403122 11.50330866 10.14697266 14.55859375 C10.15573425 15.44862091 10.16449585 16.33864807 10.17352295 17.25564575 C10.19549348 20.1917627 10.18097254 23.12636828 10.1640625 26.0625 C10.16743131 28.10604135 10.17228446 30.14958074 10.17855835 32.19311523 C10.18592651 36.47366432 10.17522576 40.75369134 10.15185547 45.03417969 C10.12336801 50.51903335 10.13977224 56.00266374 10.16971779 61.48747253 C10.18779212 65.70659591 10.18203205 69.92542963 10.16907883 74.14456177 C10.1657452 76.16675969 10.16983034 78.18898399 10.18147659 80.21115112 C10.19418736 83.0386106 10.17480526 85.86409386 10.14697266 88.69140625 C10.16215439 89.94306076 10.16215439 89.94306076 10.17764282 91.22000122 C10.10311897 95.30981683 9.80033237 97.18760363 7.42710876 100.64390564 C3.87484654 103.04810966 1.17023746 103.32681164 -2.98071289 103.25610352 C-3.71628922 103.26325882 -4.45186554 103.27041412 -5.20973206 103.27778625 C-7.63134633 103.29463984 -10.05110063 103.27529464 -12.47265625 103.25390625 C-14.15986789 103.25473518 -15.84707945 103.25719547 -17.5342865 103.26121521 C-21.0658303 103.26407078 -24.59673902 103.24939463 -28.12817383 103.22192383 C-32.65348445 103.18781473 -37.17766163 103.1938699 -41.70302677 103.2125864 C-45.18523092 103.22315666 -48.66717148 103.2142189 -52.14935112 103.19920158 C-53.8178981 103.19402122 -55.48647262 103.19449982 -57.15501595 103.20074654 C-59.48683983 103.20620035 -61.81704255 103.18582222 -64.14868164 103.15844727 C-65.18131134 103.16823608 -65.18131134 103.16823608 -66.23480225 103.17822266 C-69.58363826 103.11140617 -71.25351865 102.81747796 -73.92625427 100.73033142 C-75.73564525 98.30975762 -76.04099594 97.11770394 -76 94.125 C-76.0103125 93.3721875 -76.020625 92.619375 -76.03125 91.84375 C-75.286307 88.73251747 -73.98002406 87.61851001 -71.5 85.625 C-68.66522217 85.14398193 -68.66522217 85.14398193 -65.35449219 85.17089844 C-63.49301544 85.17135162 -63.49301544 85.17135162 -61.59393311 85.17181396 C-60.24490718 85.19223885 -58.89588783 85.21310281 -57.546875 85.234375 C-56.16254494 85.24183898 -54.77820428 85.24753117 -53.39385986 85.25152588 C-49.75710683 85.26677026 -46.12099675 85.30604048 -42.48449707 85.3503418 C-38.77100318 85.39132108 -35.05740501 85.40954249 -31.34375 85.4296875 C-24.06220746 85.47253699 -16.78119395 85.54077246 -9.5 85.625 C-9.51110306 84.63385696 -9.52220612 83.64271393 -9.53364563 82.62153625 C-9.63502819 73.27844427 -9.70996843 63.93546396 -9.75906086 54.5919466 C-9.78514854 49.78835935 -9.82053133 44.98521634 -9.87719727 40.18188477 C-9.93154682 35.54586106 -9.96142677 30.91026448 -9.97438622 26.27394676 C-9.98362084 24.50567081 -10.00165429 22.7374181 -10.02865028 20.96932411 C-10.06498111 18.49116234 -10.06994387 16.01476243 -10.06762695 13.53637695 C-10.08560333 12.80629425 -10.10357971 12.07621155 -10.12210083 11.32400513 C-10.08235728 7.39201423 -9.61622409 5.76842637 -7.10710144 2.67204285 C-4.41903255 0.56142601 -3.35169125 -0.05900865 0 0 Z " fill="#000000" transform="translate(179.5,136.375)"/>
<path d="M0 0 C5.43983036 1.64665135 8.99829088 9.32469783 11.8125 13.99609375 C12.22715012 14.68127579 12.64180023 15.36645782 13.0690155 16.07240295 C13.93654113 17.51192823 14.80111339 18.95323715 15.6628418 20.39624023 C16.98003515 22.59302685 18.31872233 24.77573616 19.65820312 26.95898438 C20.50266051 28.36637331 21.34580519 29.77455091 22.1875 31.18359375 C22.58741653 31.82860336 22.98733307 32.47361298 23.39936829 33.13816833 C25.93876459 37.46583828 26.75904848 40.66237915 26.16796875 45.65625 C24.16796875 47.65625 24.16796875 47.65625 20.79296875 48.09375 C17.16796875 47.65625 17.16796875 47.65625 15.20703125 45.5546875 C12.98122403 42.39080061 10.91211007 39.15624031 8.91796875 35.84375 C8.55445313 35.24626953 8.1909375 34.64878906 7.81640625 34.03320312 C6.93048879 32.57610204 6.04878602 31.1164398 5.16796875 29.65625 C5.14814941 30.52427246 5.12833008 31.39229492 5.10791016 32.28662109 C5.02987003 35.50351267 4.94317994 38.72002045 4.85058594 41.93652344 C4.81227548 43.32933572 4.77742616 44.72224765 4.74609375 46.11523438 C4.70048968 48.11611308 4.64145252 50.11667146 4.58203125 52.1171875 C4.55061035 53.32165527 4.51918945 54.52612305 4.48681641 55.76708984 C4.16796875 58.65625 4.16796875 58.65625 2.16796875 60.65625 C0.29296875 60.921875 0.29296875 60.921875 -1.83203125 60.90625 C-2.53328125 60.91140625 -3.23453125 60.9165625 -3.95703125 60.921875 C-5.83203125 60.65625 -5.83203125 60.65625 -7.83203125 58.65625 C-8.08599854 56.30322266 -8.08599854 56.30322266 -8.09082031 53.3203125 C-8.09712463 52.20575684 -8.10342896 51.09120117 -8.10992432 49.94287109 C-8.10587585 48.73453613 -8.10182739 47.52620117 -8.09765625 46.28125 C-8.0995697 45.04584473 -8.10148315 43.81043945 -8.10345459 42.53759766 C-8.10516735 39.25033593 -8.09709824 35.96326213 -8.0859375 32.67602539 C-8.08203522 30.6583047 -8.08592296 28.64075799 -8.09277344 26.62304688 C-8.10509129 22.75903172 -8.10364103 18.89527572 -8.09765625 15.03125 C-8.10170471 13.82291504 -8.10575317 12.61458008 -8.10992432 11.36962891 C-8.10362 10.25507324 -8.09731567 9.14051758 -8.09082031 7.9921875 C-8.08922913 7.00782715 -8.08763794 6.0234668 -8.08599854 5.00927734 C-7.54988064 0.04210185 -4.3143311 0.33379738 0 0 Z " fill="#000000" transform="translate(270.83203125,310.34375)"/>
<path d="" fill="#000000" transform="translate(0,0)"/>
</svg>